<svg xmlns="http://www.w3.org/2000/svg" width="100%" height="100%" viewBox="0 0 48 48"><g transform="translate(0 -1004.362)"><circle cx="24" cy="1028.362" r="24" fill="#3a6c87"/><path fill="#2f4b6c" style="line-height:normal;text-indent:0;text-align:start;text-decoration-line:none;text-decoration-style:solid;text-decoration-color:#000;text-transform:none;block-progression:tb;isolation:auto;mix-blend-mode:normal" d="M 21.253906 47.828125 A 23.999992 23.999992 0 0 0 21.603516 47.880859 A 23.999992 23.999992 0 0 0 24 48 A 23.999992 23.999992 0 0 0 25.697266 47.939453 A 23.999992 23.999992 0 0 0 28.080078 47.650391 A 23.999992 23.999992 0 0 0 30.419922 47.125 A 23.999992 23.999992 0 0 0 32.697266 46.369141 A 23.999992 23.999992 0 0 0 34.886719 45.388672 A 23.999992 23.999992 0 0 0 36.966797 44.195312 A 23.999992 23.999992 0 0 0 38.917969 42.800781 A 23.999992 23.999992 0 0 0 40.720703 41.216797 A 23.999992 23.999992 0 0 0 42.355469 39.460938 A 23.999992 23.999992 0 0 0 43.808594 37.550781 A 23.999992 23.999992 0 0 0 45.0625 35.505859 A 23.999992 23.999992 0 0 0 46.105469 33.345703 A 23.999992 23.999992 0 0 0 46.927734 31.091797 A 23.999992 23.999992 0 0 0 47.521484 28.767578 A 23.999992 23.999992 0 0 0 47.880859 26.396484 A 23.999992 23.999992 0 0 0 48 24 A 23.999992 23.999992 0 0 0 47.939453 22.302734 A 23.999992 23.999992 0 0 0 47.878906 21.804688 L 32.662109 6.5878906 C 32.480822 6.4066094 32.264425 6.2598047 32.025391 6.1582031 C 31.786352 6.0566031 31.524856 6 31.25 6 L 16.25 6 C 15.15059 6 14.25 6.9006 14.25 8 L 14.25 40 C 14.25 40.5497 14.47533 41.049509 14.837891 41.412109 L 21.253906 47.828125 z " color="#000" font-family="sans-serif" font-weight="400" transform="translate(0 1004.362)"/><path fill="#fff" style="line-height:normal;text-indent:0;text-align:start;text-decoration-line:none;text-decoration-style:solid;text-decoration-color:#000;text-transform:none;block-progression:tb;isolation:auto;mix-blend-mode:normal" d="m 10.003906,0.00195313 c -1.0994095,0 -1.9999998,0.9006 -1.9999998,1.99999997 l 0,31.9999999 c 0,1.0995 0.9005903,2 1.9999998,2 l 15,0 c 1.09941,0 2,-0.9005 2,-2 l 0,-19.007812 c 0.27214,-8e-4 0.50362,-0.211641 0.5,-0.494141 l 0,-0.992188 c 0.004,-0.2795 -0.22159,-0.505659 -0.5,-0.505859 l 0,-0.01172 c 0.27214,-8e-4 0.50362,-0.21164 0.5,-0.49414 l 0,-0.992188 c 0.004,-0.2795 -0.22159,-0.505559 -0.5,-0.505859 l 0,-1.3652345 C 27.278516,9.6228125 27.496528,9.3997 27.492188,9.125 l 0,-0.6152344 c 0.004,-0.2747 -0.213672,-0.5014125 -0.488282,-0.5078125 l 0,-6 c 0,-1.09949998 -0.9006,-1.99999997 -2,-1.99999997 l -15,0 z m 0,0.99999997 15,0 c 0.5626,0 1,0.4372 1,1 l 0,4 -16.9999998,0 0,-4 c 0,-0.5628 0.4374001,-1 0.9999998,-1 z m 5.5,2 c -0.27615,0 -0.5,0.2239 -0.5,0.5 0,0.2762 0.22385,0.5 0.5,0.5 0.27614,0 0.49999,-0.2238 0.5,-0.5 -10e-6,-0.2761 -0.22386,-0.5 -0.5,-0.5 z m 1.990235,0 c -0.67615,-0.01 -0.67615,1.0096 0,1 l 2.017578,0 c 0.67615,0.01 0.67615,-1.0095 0,-1 l -2.017578,0 z m -8.4902348,4 16.9999998,0 0,4.0019529 0,0.5 0,0.992188 0,0.5 0,0.01172 0,0.5 0,0.992188 0,0.5 0,14.001953 -16.9999998,0 0,-21.9999999 z M 12.773438,12 c -1.349278,1.1604 -1.978809,2.953325 -1.654297,4.703125 l 0.982421,-0.181641 c -0.259866,-1.4013 0.245674,-2.832518 1.326172,-3.761718 L 12.773438,12 Z m 6.224609,0.925781 -2.164063,1.25 c -1.192074,0.6881 -1.604313,2.222163 -0.916015,3.414063 l 2.498047,4.326172 c 0.687075,1.1951 2.22544,1.617434 3.419922,0.927734 L 24,21.59375 l -1.5,-2.599609 -1.289062,0.74414 c -0.310871,0.1782 -0.370805,0.107603 -0.478516,0.0332 -0.107711,-0.074 -0.177734,-0.189453 -0.177734,-0.189453 l -0.0059,-0.01172 -1.519531,-2.632812 -0.0039,-0.0098 c 0,0 -0.07458,-0.133937 -0.08789,-0.273437 -0.01331,-0.1395 -0.04911,-0.206022 0.224609,-0.357422 l 0.0039,0 L 20.5,15.527344 19.75,14.226562 18.998047,12.925781 Z m -5.027344,0.88086 c -0.529712,0.6711 -0.796536,1.511634 -0.748047,2.365234 l 0.998047,-0.05469 c -0.03464,-0.6099 0.154698,-1.211907 0.533203,-1.691407 l -0.783203,-0.61914 z m 4.662109,0.480468 0,0.002 0.25,0.435547 0.251954,0.433594 -0.457032,0.263672 -0.002,0 c -0.573502,0.3194 -0.771291,0.916919 -0.732422,1.324219 0.03896,0.4082 0.230469,0.703125 0.230469,0.703125 l 1.492188,2.583984 c 0,0 0.157842,0.321441 0.5,0.556641 0.342159,0.2352 0.954903,0.345265 1.541015,0.0098 l 0.002,0 0.423828,-0.246093 0.501954,0.86914 -1.298828,0.748047 c -0.724355,0.4183 -1.633174,0.171106 -2.052735,-0.558594 l -0.002,0 -2.496094,-4.326171 c -0.419874,-0.727101 -0.178311,-1.629029 0.548828,-2.048829 l 1.298828,-0.75 z m -9.6289058,15.714844 16.9999998,0 0,4 c 0,0.5629 -0.43741,1 -1,1 l -15,0 c -0.5625997,0 -0.9999998,-0.4371 -0.9999998,-1 l 0,-4 z m 8.5605468,1.5 c -0.58214,0 -1.066416,0.481553 -1.066406,1.064453 0,0.5828 0.484276,1.066406 1.066406,1.066406 0.58213,0 1.066406,-0.483606 1.066406,-1.066406 10e-6,-0.5829 -0.484266,-1.064453 -1.066406,-1.064453 z" color="#000" font-family="sans-serif" font-weight="400" overflow="visible" transform="translate(6.246 1010.36)"/></g></svg>